# xmcd
#
# Track frame offsets:
#	150
#	18773
#	37597
#	56490
#	75986
#	94773
#
# Disc length: 1518 seconds
#
# Revision: 1
# Processed by: cddbd v1.5.2PL0 Copyright (c) Steve Scherf et al.
# Submitted via: EasyCDDAExtractor 2011.3.0.0
#
DISCID=2f05ec06
DTITLE=Florida Georgia Line - Anything Like Me
DYEAR=2011
DGENRE=Country
TTITLE0=You're Country
TTITLE1=Now That She's Gone
TTITLE2=Man I Am Today
TTITLE3=Never Let Her Go
TTITLE4=Black Tears
TTITLE5=Backwoods Beauty Queen
EXTD=Skeme Team - Plan-A single\n
EXTT0=
EXTT1=
EXTT2=
EXTT3=
EXTT4=
EXTT5=
PLAYORDER=
